<?xml version="1.0" standalone="no"?>
 <!DOCTYPE svg PUBLIC "-//W3C//DTD SVG 1.1//EN" 
 "http://www.w3.org/Graphics/SVG/1.1/DTD/svg11.dtd"> 
<svg xmlns="http://www.w3.org/2000/svg" version="1.1" 
    width="29.7002cm" height="21.0007cm" viewBox="0 0 116930 82680 ">
<title>SVG Picture created as Photodiode sensor-B_Cu.svg date 2021/07/29 10:11:29 </title>
  <desc>Picture generated by PCBNEW </desc>
<g style="fill:#000000; fill-opacity:1;stroke:#000000; stroke-opacity:1;
stroke-linecap:round; stroke-linejoin:round; "
 transform="translate(0 0) scale(1 1)">
</g>
<g style="fill:#000000; fill-opacity:0.0; 
stroke:#000000; stroke-width:-0.000393701; stroke-opacity:1; 
stroke-linecap:round; stroke-linejoin:round;">
<g >
</g>
<g style="fill:#000000; fill-opacity:0.0; 
stroke:#000000; stroke-width:629.921; stroke-opacity:1; 
stroke-linecap:round; stroke-linejoin:round;">
<path d="M35900 31957
L35900 31642
" />
<path d="M41900 34957
L41900 34642
" />
<path d="M36900 31957
L36900 31642
" />
<path d="M40900 34957
L40900 34642
" />
<path d="M37900 31957
L37900 31642
" />
<path d="M39900 34957
L39900 34642
" />
<path d="M38900 31957
L38900 31642
" />
<path d="M38900 34957
L38900 34642
" />
<path d="M39900 31957
L39900 31642
" />
<path d="M37900 34957
L37900 34642
" />
<path d="M40900 31957
L40900 31642
" />
<path d="M36900 34957
L36900 34642
" />
<path d="M41900 31957
L41900 31642
" />
</g>
<g style="fill:#000000; fill-opacity:0.0; 
stroke:#000000; stroke-width:0; stroke-opacity:1; 
stroke-linecap:round; stroke-linejoin:round;">
</g>
<g style="fill:#000000; fill-opacity:1.0; 
stroke:#000000; stroke-width:0; stroke-opacity:1; 
stroke-linecap:round; stroke-linejoin:round;">
<path style="fill:#000000; fill-opacity:1.0; 
stroke:#000000; stroke-width:0; stroke-opacity:1; 
stroke-linecap:round; stroke-linejoin:round;fill-rule:evenodd;"
d="M 36215,35272.4
35585,35272.4
35585,34327.6
36215,34327.6
Z" /> 
</g>
<g >
</g>
<g style="fill:#000000; fill-opacity:1.0; 
stroke:#000000; stroke-width:0; stroke-opacity:1; 
stroke-linecap:round; stroke-linejoin:round;">
<circle cx="30400" cy="29900" r="393.701" /> 
</g>
<g style="fill:#000000; fill-opacity:1.0; 
stroke:#000000; stroke-width:39.3701; stroke-opacity:1; 
stroke-linecap:round; stroke-linejoin:round;">
</g>
<g >
</g>
<g style="fill:#000000; fill-opacity:1.0; 
stroke:#000000; stroke-width:39.3701; stroke-opacity:1; 
stroke-linecap:round; stroke-linejoin:round;">
</g>
<g style="fill:#000000; fill-opacity:1.0; 
stroke:#000000; stroke-width:0; stroke-opacity:1; 
stroke-linecap:round; stroke-linejoin:round;">
<circle cx="31400" cy="36400" r="393.701" /> 
</g>
<g style="fill:#000000; fill-opacity:1.0; 
stroke:#000000; stroke-width:39.3701; stroke-opacity:1; 
stroke-linecap:round; stroke-linejoin:round;">
</g>
<g >
</g>
<g style="fill:#000000; fill-opacity:1.0; 
stroke:#000000; stroke-width:39.3701; stroke-opacity:1; 
stroke-linecap:round; stroke-linejoin:round;">
</g>
<g style="fill:#000000; fill-opacity:1.0; 
stroke:#000000; stroke-width:629.921; stroke-opacity:1; 
stroke-linecap:round; stroke-linejoin:round;">
</g>
<g style="fill:#000000; fill-opacity:0.0; 
stroke:#000000; stroke-width:629.921; stroke-opacity:1; 
stroke-linecap:round; stroke-linejoin:round;">
<path d="M36900 36900
L36900 36900
" />
</g>
<g style="fill:#000000; fill-opacity:1.0; 
stroke:#000000; stroke-width:0; stroke-opacity:1; 
stroke-linecap:round; stroke-linejoin:round;">
<circle cx="35900" cy="36900" r="314.961" /> 
</g>
<g style="fill:#000000; fill-opacity:1.0; 
stroke:#000000; stroke-width:39.3701; stroke-opacity:1; 
stroke-linecap:round; stroke-linejoin:round;">
</g>
<g >
</g>
<g style="fill:#000000; fill-opacity:1.0; 
stroke:#000000; stroke-width:39.3701; stroke-opacity:1; 
stroke-linecap:round; stroke-linejoin:round;">
</g>
<g style="fill:#000000; fill-opacity:1.0; 
stroke:#000000; stroke-width:0; stroke-opacity:1; 
stroke-linecap:round; stroke-linejoin:round;">
<circle cx="45500" cy="31300" r="590.551" /> 
</g>
<g style="fill:#000000; fill-opacity:1.0; 
stroke:#000000; stroke-width:39.3701; stroke-opacity:1; 
stroke-linecap:round; stroke-linejoin:round;">
</g>
<g style="fill:#000000; fill-opacity:1.0; 
stroke:#000000; stroke-width:0; stroke-opacity:1; 
stroke-linecap:round; stroke-linejoin:round;">
<circle cx="45500" cy="33300" r="590.551" /> 
</g>
<g style="fill:#000000; fill-opacity:1.0; 
stroke:#000000; stroke-width:39.3701; stroke-opacity:1; 
stroke-linecap:round; stroke-linejoin:round;">
</g>
<g style="fill:#000000; fill-opacity:1.0; 
stroke:#000000; stroke-width:0; stroke-opacity:1; 
stroke-linecap:round; stroke-linejoin:round;">
<path style="fill:#000000; fill-opacity:1.0; 
stroke:#000000; stroke-width:0; stroke-opacity:1; 
stroke-linecap:round; stroke-linejoin:round;fill-rule:evenodd;"
d="M 46090.6,35890.6
44909.4,35890.6
44909.4,34709.4
46090.6,34709.4
Z" /> 
</g>
<g >
</g>
<g style="fill:#000000; fill-opacity:1.0; 
stroke:#000000; stroke-width:0; stroke-opacity:1; 
stroke-linecap:round; stroke-linejoin:round;">
<circle cx="33430" cy="33800" r="314.961" /> 
</g>
<g style="fill:#000000; fill-opacity:1.0; 
stroke:#000000; stroke-width:39.3701; stroke-opacity:1; 
stroke-linecap:round; stroke-linejoin:round;">
</g>
<g style="fill:#000000; fill-opacity:1.0; 
stroke:#000000; stroke-width:0; stroke-opacity:1; 
stroke-linecap:round; stroke-linejoin:round;">
<path style="fill:#000000; fill-opacity:1.0; 
stroke:#000000; stroke-width:0; stroke-opacity:1; 
stroke-linecap:round; stroke-linejoin:round;fill-rule:evenodd;"
d="M 30985,34115
30985,33485
31615,33485
31615,34115
Z" /> 
</g>
<g >
</g>
<g style="fill:#000000; fill-opacity:1.0; 
stroke:#000000; stroke-width:0; stroke-opacity:1; 
stroke-linecap:round; stroke-linejoin:round;">
</g>
<g style="fill:#000000; fill-opacity:1.0; 
stroke:#000000; stroke-width:629.921; stroke-opacity:1; 
stroke-linecap:round; stroke-linejoin:round;">
</g>
<g style="fill:#000000; fill-opacity:0.0; 
stroke:#000000; stroke-width:629.921; stroke-opacity:1; 
stroke-linecap:round; stroke-linejoin:round;">
<path d="M36900 29700
L36900 29700
" />
</g>
<g style="fill:#000000; fill-opacity:1.0; 
stroke:#000000; stroke-width:0; stroke-opacity:1; 
stroke-linecap:round; stroke-linejoin:round;">
<circle cx="35900" cy="29700" r="314.961" /> 
</g>
<g style="fill:#000000; fill-opacity:1.0; 
stroke:#000000; stroke-width:39.3701; stroke-opacity:1; 
stroke-linecap:round; stroke-linejoin:round;">
</g>
<g >
</g>
<g style="fill:#000000; fill-opacity:1.0; 
stroke:#000000; stroke-width:39.3701; stroke-opacity:1; 
stroke-linecap:round; stroke-linejoin:round;">
</g>
<g style="fill:#000000; fill-opacity:1.0; 
stroke:#000000; stroke-width:0; stroke-opacity:1; 
stroke-linecap:round; stroke-linejoin:round;">
<circle cx="34700" cy="30800" r="393.701" /> 
</g>
<g style="fill:#000000; fill-opacity:1.0; 
stroke:#000000; stroke-width:39.3701; stroke-opacity:1; 
stroke-linecap:round; stroke-linejoin:round;">
</g>
<g >
</g>
<g style="fill:#000000; fill-opacity:1.0; 
stroke:#000000; stroke-width:39.3701; stroke-opacity:1; 
stroke-linecap:round; stroke-linejoin:round;">
</g>
<g style="fill:#000000; fill-opacity:1.0; 
stroke:#000000; stroke-width:0; stroke-opacity:1; 
stroke-linecap:round; stroke-linejoin:round;">
<circle cx="43100" cy="30800" r="393.701" /> 
</g>
<g style="fill:#000000; fill-opacity:1.0; 
stroke:#000000; stroke-width:39.3701; stroke-opacity:1; 
stroke-linecap:round; stroke-linejoin:round;">
</g>
<g >
</g>
<g style="fill:#000000; fill-opacity:1.0; 
stroke:#000000; stroke-width:39.3701; stroke-opacity:1; 
stroke-linecap:round; stroke-linejoin:round;">
</g>
<g style="fill:#000000; fill-opacity:1.0; 
stroke:#000000; stroke-width:0; stroke-opacity:1; 
stroke-linecap:round; stroke-linejoin:round;">
<circle cx="43100" cy="35800" r="393.701" /> 
</g>
<g style="fill:#000000; fill-opacity:1.0; 
stroke:#000000; stroke-width:39.3701; stroke-opacity:1; 
stroke-linecap:round; stroke-linejoin:round;">
</g>
<g >
</g>
<g style="fill:#000000; fill-opacity:1.0; 
stroke:#000000; stroke-width:39.3701; stroke-opacity:1; 
stroke-linecap:round; stroke-linejoin:round;">
</g>
<g style="fill:#000000; fill-opacity:1.0; 
stroke:#000000; stroke-width:0; stroke-opacity:1; 
stroke-linecap:round; stroke-linejoin:round;">
<circle cx="34700" cy="35800" r="393.701" /> 
</g>
<g style="fill:#000000; fill-opacity:1.0; 
stroke:#000000; stroke-width:39.3701; stroke-opacity:1; 
stroke-linecap:round; stroke-linejoin:round;">
</g>
<g >
</g>
<g style="fill:#000000; fill-opacity:1.0; 
stroke:#000000; stroke-width:39.3701; stroke-opacity:1; 
stroke-linecap:round; stroke-linejoin:round;">
</g>
<g style="fill:#000000; fill-opacity:1.0; 
stroke:#000000; stroke-width:0; stroke-opacity:1; 
stroke-linecap:round; stroke-linejoin:round;">
<path style="fill:#000000; fill-opacity:1.0; 
stroke:#000000; stroke-width:0; stroke-opacity:1; 
stroke-linecap:round; stroke-linejoin:round;fill-rule:evenodd;"
d="M 39155.7,32505.2
39165.3,32506.6
39174.6,32509
39183.7,32512.2
39192.5,32516.3
39200.7,32521.3
39208.5,32527.1
39215.7,32533.6
39222.1,32540.7
39227.9,32548.5
39232.9,32556.8
39237,32565.5
39240.2,32574.6
39242.6,32583.9
39244,32593.5
39244.5,32603.1
39244.5,32898.4
39244,32908.1
39242.6,32917.6
39240.2,32927
39237,32936.1
39232.9,32944.8
39227.9,32953.1
39222.1,32960.9
39215.7,32968
39208.5,32974.5
39200.7,32980.3
39192.5,32985.2
39183.7,32989.4
39174.6,32992.6
39165.3,32995
39155.7,32996.4
39146.1,32996.9
38653.9,32996.9
38644.3,32996.4
38634.7,32995
38625.4,32992.6
38616.3,32989.4
38607.5,32985.2
38599.3,32980.3
38591.5,32974.5
38584.3,32968
38577.9,32960.9
38572.1,32953.1
38567.1,32944.8
38563,32936.1
38559.8,32927
38557.4,32917.6
38556,32908.1
38555.5,32898.4
38555.5,32603.1
38556,32593.5
38557.4,32583.9
38559.8,32574.6
38563,32565.5
38567.1,32556.8
38572.1,32548.5
38577.9,32540.7
38584.3,32533.6
38591.5,32527.1
38599.3,32521.3
38607.5,32516.3
38616.3,32512.2
38625.4,32509
38634.7,32506.6
38644.3,32505.2
38653.9,32504.7
39146.1,32504.7
Z" /> 
<path style="fill:#000000; fill-opacity:1.0; 
stroke:#000000; stroke-width:0; stroke-opacity:1; 
stroke-linecap:round; stroke-linejoin:round;fill-rule:evenodd;"
d="M 39155.7,33607.6
39165.3,33609
39174.6,33611.3
39183.7,33614.6
39192.5,33618.7
39200.7,33623.7
39208.5,33629.4
39215.7,33635.9
39222.1,33643.1
39227.9,33650.8
39232.9,33659.1
39237,33667.8
39240.2,33676.9
39242.6,33686.3
39244,33695.9
39244.5,33705.5
39244.5,34000.8
39244,34010.4
39242.6,34020
39240.2,34029.4
39237,34038.5
39232.9,34047.2
39227.9,34055.5
39222.1,34063.2
39215.7,34070.4
39208.5,34076.9
39200.7,34082.6
39192.5,34087.6
39183.7,34091.7
39174.6,34095
39165.3,34097.3
39155.7,34098.7
39146.1,34099.2
38653.9,34099.2
38644.3,34098.7
38634.7,34097.3
38625.4,34095
38616.3,34091.7
38607.5,34087.6
38599.3,34082.6
38591.5,34076.9
38584.3,34070.4
38577.9,34063.2
38572.1,34055.5
38567.1,34047.2
38563,34038.5
38559.8,34029.4
38557.4,34020
38556,34010.4
38555.5,34000.8
38555.5,33705.5
38556,33695.9
38557.4,33686.3
38559.8,33676.9
38563,33667.8
38567.1,33659.1
38572.1,33650.8
38577.9,33643.1
38584.3,33635.9
38591.5,33629.4
38599.3,33623.7
38607.5,33618.7
38616.3,33614.6
38625.4,33611.3
38634.7,33609
38644.3,33607.6
38653.9,33607.1
39146.1,33607.1
Z" /> 
</g>
<g >
</g>
<g style="fill:#000000; fill-opacity:1.0; 
stroke:#000000; stroke-width:0; stroke-opacity:1; 
stroke-linecap:round; stroke-linejoin:round;">
</g>
<g style="fill:#000000; fill-opacity:1.0; 
stroke:#000000; stroke-width:629.921; stroke-opacity:1; 
stroke-linecap:round; stroke-linejoin:round;">
</g>
<g style="fill:#000000; fill-opacity:0.0; 
stroke:#000000; stroke-width:629.921; stroke-opacity:1; 
stroke-linecap:round; stroke-linejoin:round;">
<path d="M40900 36900
L40900 36900
" />
</g>
<g style="fill:#000000; fill-opacity:1.0; 
stroke:#000000; stroke-width:0; stroke-opacity:1; 
stroke-linecap:round; stroke-linejoin:round;">
<circle cx="41900" cy="36900" r="314.961" /> 
</g>
<g style="fill:#000000; fill-opacity:1.0; 
stroke:#000000; stroke-width:39.3701; stroke-opacity:1; 
stroke-linecap:round; stroke-linejoin:round;">
</g>
<g >
</g>
<g style="fill:#000000; fill-opacity:1.0; 
stroke:#000000; stroke-width:39.3701; stroke-opacity:1; 
stroke-linecap:round; stroke-linejoin:round;">
</g>
<g style="fill:#000000; fill-opacity:1.0; 
stroke:#000000; stroke-width:629.921; stroke-opacity:1; 
stroke-linecap:round; stroke-linejoin:round;">
</g>
<g style="fill:#000000; fill-opacity:0.0; 
stroke:#000000; stroke-width:629.921; stroke-opacity:1; 
stroke-linecap:round; stroke-linejoin:round;">
<path d="M40900 29700
L40900 29700
" />
</g>
<g style="fill:#000000; fill-opacity:1.0; 
stroke:#000000; stroke-width:0; stroke-opacity:1; 
stroke-linecap:round; stroke-linejoin:round;">
<circle cx="41900" cy="29700" r="314.961" /> 
</g>
<g style="fill:#000000; fill-opacity:1.0; 
stroke:#000000; stroke-width:39.3701; stroke-opacity:1; 
stroke-linecap:round; stroke-linejoin:round;">
</g>
<g >
</g>
<g style="fill:#000000; fill-opacity:1.0; 
stroke:#000000; stroke-width:39.3701; stroke-opacity:1; 
stroke-linecap:round; stroke-linejoin:round;">
</g>
<g style="fill:#000000; fill-opacity:1.0; 
stroke:#000000; stroke-width:0; stroke-opacity:1; 
stroke-linecap:round; stroke-linejoin:round;">
<circle cx="33430" cy="31800" r="314.961" /> 
</g>
<g style="fill:#000000; fill-opacity:1.0; 
stroke:#000000; stroke-width:39.3701; stroke-opacity:1; 
stroke-linecap:round; stroke-linejoin:round;">
</g>
<g style="fill:#000000; fill-opacity:1.0; 
stroke:#000000; stroke-width:0; stroke-opacity:1; 
stroke-linecap:round; stroke-linejoin:round;">
<path style="fill:#000000; fill-opacity:1.0; 
stroke:#000000; stroke-width:0; stroke-opacity:1; 
stroke-linecap:round; stroke-linejoin:round;fill-rule:evenodd;"
d="M 30985,32115
30985,31485
31615,31485
31615,32115
Z" /> 
</g>
<g >
</g>
<g style="fill:#000000; fill-opacity:1.0; 
stroke:#000000; stroke-width:0; stroke-opacity:1; 
stroke-linecap:round; stroke-linejoin:round;">
<circle cx="30430" cy="34800" r="314.961" /> 
</g>
<g style="fill:#000000; fill-opacity:1.0; 
stroke:#000000; stroke-width:39.3701; stroke-opacity:1; 
stroke-linecap:round; stroke-linejoin:round;">
</g>
<g style="fill:#000000; fill-opacity:1.0; 
stroke:#000000; stroke-width:0; stroke-opacity:1; 
stroke-linecap:round; stroke-linejoin:round;">
<path style="fill:#000000; fill-opacity:1.0; 
stroke:#000000; stroke-width:0; stroke-opacity:1; 
stroke-linecap:round; stroke-linejoin:round;fill-rule:evenodd;"
d="M 27985,35115
27985,34485
28615,34485
28615,35115
Z" /> 
</g>
<g >
</g>
<g style="fill:#000000; fill-opacity:1.0; 
stroke:#000000; stroke-width:0; stroke-opacity:1; 
stroke-linecap:round; stroke-linejoin:round;">
<circle cx="30430" cy="32800" r="314.961" /> 
</g>
<g style="fill:#000000; fill-opacity:1.0; 
stroke:#000000; stroke-width:39.3701; stroke-opacity:1; 
stroke-linecap:round; stroke-linejoin:round;">
</g>
<g style="fill:#000000; fill-opacity:1.0; 
stroke:#000000; stroke-width:0; stroke-opacity:1; 
stroke-linecap:round; stroke-linejoin:round;">
<path style="fill:#000000; fill-opacity:1.0; 
stroke:#000000; stroke-width:0; stroke-opacity:1; 
stroke-linecap:round; stroke-linejoin:round;fill-rule:evenodd;"
d="M 27985,33115
27985,32485
28615,32485
28615,33115
Z" /> 
</g>
<g >
</g>
<g style="fill:#000000; fill-opacity:1.0; 
stroke:#000000; stroke-width:0; stroke-opacity:1; 
stroke-linecap:round; stroke-linejoin:round;">
<path style="fill:#000000; fill-opacity:1.0; 
stroke:#000000; stroke-width:0; stroke-opacity:1; 
stroke-linecap:round; stroke-linejoin:round;fill-rule:evenodd;"
d="M 37157.3,30456
37166.8,30457.4
37176.2,30459.8
37185.3,30463
37194,30467.1
37202.3,30472.1
37210.1,30477.9
37217.2,30484.3
37223.7,30491.5
37229.5,30499.3
37234.4,30507.5
37238.6,30516.3
37241.8,30525.4
37244.2,30534.7
37245.6,30544.3
37246.1,30553.9
37246.1,31046.1
37245.6,31055.7
37244.2,31065.3
37241.8,31074.6
37238.6,31083.7
37234.4,31092.5
37229.5,31100.7
37223.7,31108.5
37217.2,31115.7
37210.1,31122.1
37202.3,31127.9
37194,31132.9
37185.3,31137
37176.2,31140.2
37166.8,31142.6
37157.3,31144
37147.6,31144.5
36852.4,31144.5
36842.7,31144
36833.2,31142.6
36823.8,31140.2
36814.7,31137
36806,31132.9
36797.7,31127.9
36789.9,31122.1
36782.8,31115.7
36776.3,31108.5
36770.5,31100.7
36765.6,31092.5
36761.4,31083.7
36758.2,31074.6
36755.8,31065.3
36754.4,31055.7
36753.9,31046.1
36753.9,30553.9
36754.4,30544.3
36755.8,30534.7
36758.2,30525.4
36761.4,30516.3
36765.6,30507.5
36770.5,30499.3
36776.3,30491.5
36782.8,30484.3
36789.9,30477.9
36797.7,30472.1
36806,30467.1
36814.7,30463
36823.8,30459.8
36833.2,30457.4
36842.7,30456
36852.4,30455.5
37147.6,30455.5
Z" /> 
<path style="fill:#000000; fill-opacity:1.0; 
stroke:#000000; stroke-width:0; stroke-opacity:1; 
stroke-linecap:round; stroke-linejoin:round;fill-rule:evenodd;"
d="M 36054.9,30456
36064.5,30457.4
36073.8,30459.8
36082.9,30463
36091.7,30467.1
36100,30472.1
36107.7,30477.9
36114.9,30484.3
36121.4,30491.5
36127.1,30499.3
36132.1,30507.5
36136.2,30516.3
36139.5,30525.4
36141.8,30534.7
36143.2,30544.3
36143.7,30553.9
36143.7,31046.1
36143.2,31055.7
36141.8,31065.3
36139.5,31074.6
36136.2,31083.7
36132.1,31092.5
36127.1,31100.7
36121.4,31108.5
36114.9,31115.7
36107.7,31122.1
36100,31127.9
36091.7,31132.9
36082.9,31137
36073.8,31140.2
36064.5,31142.6
36054.9,31144
36045.3,31144.5
35750,31144.5
35740.4,31144
35730.8,31142.6
35721.4,31140.2
35712.3,31137
35703.6,31132.9
35695.3,31127.9
35687.6,31122.1
35680.4,31115.7
35673.9,31108.5
35668.2,31100.7
35663.2,31092.5
35659.1,31083.7
35655.8,31074.6
35653.5,31065.3
35652,31055.7
35651.6,31046.1
35651.6,30553.9
35652,30544.3
35653.5,30534.7
35655.8,30525.4
35659.1,30516.3
35663.2,30507.5
35668.2,30499.3
35673.9,30491.5
35680.4,30484.3
35687.6,30477.9
35695.3,30472.1
35703.6,30467.1
35712.3,30463
35721.4,30459.8
35730.8,30457.4
35740.4,30456
35750,30455.5
36045.3,30455.5
Z" /> 
</g>
<g >
</g>
<g style="fill:#000000; fill-opacity:1.0; 
stroke:#000000; stroke-width:0; stroke-opacity:1; 
stroke-linecap:round; stroke-linejoin:round;">
<path style="fill:#000000; fill-opacity:1.0; 
stroke:#000000; stroke-width:0; stroke-opacity:1; 
stroke-linecap:round; stroke-linejoin:round;fill-rule:evenodd;"
d="M 40954.9,35456
40964.5,35457.4
40973.8,35459.8
40982.9,35463
40991.7,35467.1
41000,35472.1
41007.7,35477.9
41014.9,35484.3
41021.4,35491.5
41027.1,35499.3
41032.1,35507.5
41036.2,35516.3
41039.5,35525.4
41041.8,35534.7
41043.2,35544.3
41043.7,35553.9
41043.7,36046.1
41043.2,36055.7
41041.8,36065.3
41039.5,36074.6
41036.2,36083.7
41032.1,36092.5
41027.1,36100.7
41021.4,36108.5
41014.9,36115.7
41007.7,36122.1
41000,36127.9
40991.7,36132.9
40982.9,36137
40973.8,36140.2
40964.5,36142.6
40954.9,36144
40945.3,36144.5
40650,36144.5
40640.4,36144
40630.8,36142.6
40621.4,36140.2
40612.3,36137
40603.6,36132.9
40595.3,36127.9
40587.6,36122.1
40580.4,36115.7
40573.9,36108.5
40568.2,36100.7
40563.2,36092.5
40559.1,36083.7
40555.8,36074.6
40553.5,36065.3
40552,36055.7
40551.6,36046.1
40551.6,35553.9
40552,35544.3
40553.5,35534.7
40555.8,35525.4
40559.1,35516.3
40563.2,35507.5
40568.2,35499.3
40573.9,35491.5
40580.4,35484.3
40587.6,35477.9
40595.3,35472.1
40603.6,35467.1
40612.3,35463
40621.4,35459.8
40630.8,35457.4
40640.4,35456
40650,35455.5
40945.3,35455.5
Z" /> 
<path style="fill:#000000; fill-opacity:1.0; 
stroke:#000000; stroke-width:0; stroke-opacity:1; 
stroke-linecap:round; stroke-linejoin:round;fill-rule:evenodd;"
d="M 42057.3,35456
42066.8,35457.4
42076.2,35459.8
42085.3,35463
42094,35467.1
42102.3,35472.1
42110.1,35477.9
42117.2,35484.3
42123.7,35491.5
42129.5,35499.3
42134.4,35507.5
42138.6,35516.3
42141.8,35525.4
42144.2,35534.7
42145.6,35544.3
42146.1,35553.9
42146.1,36046.1
42145.6,36055.7
42144.2,36065.3
42141.8,36074.6
42138.6,36083.7
42134.4,36092.5
42129.5,36100.7
42123.7,36108.5
42117.2,36115.7
42110.1,36122.1
42102.3,36127.9
42094,36132.9
42085.3,36137
42076.2,36140.2
42066.8,36142.6
42057.3,36144
42047.6,36144.5
41752.4,36144.5
41742.7,36144
41733.2,36142.6
41723.8,36140.2
41714.7,36137
41706,36132.9
41697.7,36127.9
41689.9,36122.1
41682.8,36115.7
41676.3,36108.5
41670.5,36100.7
41665.6,36092.5
41661.4,36083.7
41658.2,36074.6
41655.8,36065.3
41654.4,36055.7
41653.9,36046.1
41653.9,35553.9
41654.4,35544.3
41655.8,35534.7
41658.2,35525.4
41661.4,35516.3
41665.6,35507.5
41670.5,35499.3
41676.3,35491.5
41682.8,35484.3
41689.9,35477.9
41697.7,35472.1
41706,35467.1
41714.7,35463
41723.8,35459.8
41733.2,35457.4
41742.7,35456
41752.4,35455.5
42047.6,35455.5
Z" /> 
</g>
<g >
</g>
<g style="fill:#000000; fill-opacity:1.0; 
stroke:#000000; stroke-width:0; stroke-opacity:1; 
stroke-linecap:round; stroke-linejoin:round;">
<path style="fill:#000000; fill-opacity:1.0; 
stroke:#000000; stroke-width:0; stroke-opacity:1; 
stroke-linecap:round; stroke-linejoin:round;fill-rule:evenodd;"
d="M 40957.3,30456
40966.8,30457.4
40976.2,30459.8
40985.3,30463
40994,30467.1
41002.3,30472.1
41010.1,30477.9
41017.2,30484.3
41023.7,30491.5
41029.5,30499.3
41034.4,30507.5
41038.6,30516.3
41041.8,30525.4
41044.2,30534.7
41045.6,30544.3
41046.1,30553.9
41046.1,31046.1
41045.6,31055.7
41044.2,31065.3
41041.8,31074.6
41038.6,31083.7
41034.4,31092.5
41029.5,31100.7
41023.7,31108.5
41017.2,31115.7
41010.1,31122.1
41002.3,31127.9
40994,31132.9
40985.3,31137
40976.2,31140.2
40966.8,31142.6
40957.3,31144
40947.6,31144.5
40652.4,31144.5
40642.7,31144
40633.2,31142.6
40623.8,31140.2
40614.7,31137
40606,31132.9
40597.7,31127.9
40589.9,31122.1
40582.8,31115.7
40576.3,31108.5
40570.5,31100.7
40565.6,31092.5
40561.4,31083.7
40558.2,31074.6
40555.8,31065.3
40554.4,31055.7
40553.9,31046.1
40553.9,30553.9
40554.4,30544.3
40555.8,30534.7
40558.2,30525.4
40561.4,30516.3
40565.6,30507.5
40570.5,30499.3
40576.3,30491.5
40582.8,30484.3
40589.9,30477.9
40597.7,30472.1
40606,30467.1
40614.7,30463
40623.8,30459.8
40633.2,30457.4
40642.7,30456
40652.4,30455.5
40947.6,30455.5
Z" /> 
<path style="fill:#000000; fill-opacity:1.0; 
stroke:#000000; stroke-width:0; stroke-opacity:1; 
stroke-linecap:round; stroke-linejoin:round;fill-rule:evenodd;"
d="M 42059.6,30456
42069.2,30457.4
42078.6,30459.8
42087.7,30463
42096.4,30467.1
42104.7,30472.1
42112.4,30477.9
42119.6,30484.3
42126.1,30491.5
42131.8,30499.3
42136.8,30507.5
42140.9,30516.3
42144.2,30525.4
42146.5,30534.7
42148,30544.3
42148.4,30553.9
42148.4,31046.1
42148,31055.7
42146.5,31065.3
42144.2,31074.6
42140.9,31083.7
42136.8,31092.5
42131.8,31100.7
42126.1,31108.5
42119.6,31115.7
42112.4,31122.1
42104.7,31127.9
42096.4,31132.9
42087.7,31137
42078.6,31140.2
42069.2,31142.6
42059.6,31144
42050,31144.5
41754.7,31144.5
41745.1,31144
41735.5,31142.6
41726.2,31140.2
41717.1,31137
41708.3,31132.9
41700,31127.9
41692.3,31122.1
41685.1,31115.7
41678.6,31108.5
41672.9,31100.7
41667.9,31092.5
41663.8,31083.7
41660.5,31074.6
41658.2,31065.3
41656.8,31055.7
41656.3,31046.1
41656.3,30553.9
41656.8,30544.3
41658.2,30534.7
41660.5,30525.4
41663.8,30516.3
41667.9,30507.5
41672.9,30499.3
41678.6,30491.5
41685.1,30484.3
41692.3,30477.9
41700,30472.1
41708.3,30467.1
41717.1,30463
41726.2,30459.8
41735.5,30457.4
41745.1,30456
41754.7,30455.5
42050,30455.5
Z" /> 
</g>
<g >
</g>
<g style="fill:#000000; fill-opacity:1.0; 
stroke:#000000; stroke-width:0; stroke-opacity:1; 
stroke-linecap:round; stroke-linejoin:round;">
<path style="fill:#000000; fill-opacity:1.0; 
stroke:#000000; stroke-width:0; stroke-opacity:1; 
stroke-linecap:round; stroke-linejoin:round;fill-rule:evenodd;"
d="M 37159.6,35456
37169.2,35457.4
37178.6,35459.8
37187.7,35463
37196.4,35467.1
37204.7,35472.1
37212.4,35477.9
37219.6,35484.3
37226.1,35491.5
37231.8,35499.3
37236.8,35507.5
37240.9,35516.3
37244.2,35525.4
37246.5,35534.7
37248,35544.3
37248.4,35553.9
37248.4,36046.1
37248,36055.7
37246.5,36065.3
37244.2,36074.6
37240.9,36083.7
37236.8,36092.5
37231.8,36100.7
37226.1,36108.5
37219.6,36115.7
37212.4,36122.1
37204.7,36127.9
37196.4,36132.9
37187.7,36137
37178.6,36140.2
37169.2,36142.6
37159.6,36144
37150,36144.5
36854.7,36144.5
36845.1,36144
36835.5,36142.6
36826.2,36140.2
36817.1,36137
36808.3,36132.9
36800,36127.9
36792.3,36122.1
36785.1,36115.7
36778.6,36108.5
36772.9,36100.7
36767.9,36092.5
36763.8,36083.7
36760.5,36074.6
36758.2,36065.3
36756.8,36055.7
36756.3,36046.1
36756.3,35553.9
36756.8,35544.3
36758.2,35534.7
36760.5,35525.4
36763.8,35516.3
36767.9,35507.5
36772.9,35499.3
36778.6,35491.5
36785.1,35484.3
36792.3,35477.9
36800,35472.1
36808.3,35467.1
36817.1,35463
36826.2,35459.8
36835.5,35457.4
36845.1,35456
36854.7,35455.5
37150,35455.5
Z" /> 
<path style="fill:#000000; fill-opacity:1.0; 
stroke:#000000; stroke-width:0; stroke-opacity:1; 
stroke-linecap:round; stroke-linejoin:round;fill-rule:evenodd;"
d="M 36057.3,35456
36066.8,35457.4
36076.2,35459.8
36085.3,35463
36094,35467.1
36102.3,35472.1
36110.1,35477.9
36117.2,35484.3
36123.7,35491.5
36129.5,35499.3
36134.4,35507.5
36138.6,35516.3
36141.8,35525.4
36144.2,35534.7
36145.6,35544.3
36146.1,35553.9
36146.1,36046.1
36145.6,36055.7
36144.2,36065.3
36141.8,36074.6
36138.6,36083.7
36134.4,36092.5
36129.5,36100.7
36123.7,36108.5
36117.2,36115.7
36110.1,36122.1
36102.3,36127.9
36094,36132.9
36085.3,36137
36076.2,36140.2
36066.8,36142.6
36057.3,36144
36047.6,36144.5
35752.4,36144.5
35742.7,36144
35733.2,36142.6
35723.8,36140.2
35714.7,36137
35706,36132.9
35697.7,36127.9
35689.9,36122.1
35682.8,36115.7
35676.3,36108.5
35670.5,36100.7
35665.6,36092.5
35661.4,36083.7
35658.2,36074.6
35655.8,36065.3
35654.4,36055.7
35653.9,36046.1
35653.9,35553.9
35654.4,35544.3
35655.8,35534.7
35658.2,35525.4
35661.4,35516.3
35665.6,35507.5
35670.5,35499.3
35676.3,35491.5
35682.8,35484.3
35689.9,35477.9
35697.7,35472.1
35706,35467.1
35714.7,35463
35723.8,35459.8
35733.2,35457.4
35742.7,35456
35752.4,35455.5
36047.6,35455.5
Z" /> 
</g>
<g >
</g>
<g style="fill:#000000; fill-opacity:1.0; 
stroke:#000000; stroke-width:0; stroke-opacity:1; 
stroke-linecap:round; stroke-linejoin:round;">
<circle cx="38900" cy="35700" r="314.961" /> 
</g>
<g style="fill:#000000; fill-opacity:1.0; 
stroke:#000000; stroke-width:39.3701; stroke-opacity:1; 
stroke-linecap:round; stroke-linejoin:round;">
</g>
<g style="fill:#000000; fill-opacity:1.0; 
stroke:#000000; stroke-width:0; stroke-opacity:1; 
stroke-linecap:round; stroke-linejoin:round;">
<circle cx="38900" cy="38100" r="314.961" /> 
</g>
<g style="fill:#000000; fill-opacity:1.0; 
stroke:#000000; stroke-width:39.3701; stroke-opacity:1; 
stroke-linecap:round; stroke-linejoin:round;">
</g>
<g style="fill:#000000; fill-opacity:1.0; 
stroke:#000000; stroke-width:0; stroke-opacity:1; 
stroke-linecap:round; stroke-linejoin:round;">
<circle cx="38900" cy="30900" r="314.961" /> 
</g>
<g style="fill:#000000; fill-opacity:1.0; 
stroke:#000000; stroke-width:39.3701; stroke-opacity:1; 
stroke-linecap:round; stroke-linejoin:round;">
</g>
<g style="fill:#000000; fill-opacity:1.0; 
stroke:#000000; stroke-width:0; stroke-opacity:1; 
stroke-linecap:round; stroke-linejoin:round;">
<circle cx="38900" cy="28700" r="314.961" /> 
</g>
<g style="fill:#000000; fill-opacity:1.0; 
stroke:#000000; stroke-width:39.3701; stroke-opacity:1; 
stroke-linecap:round; stroke-linejoin:round;">
</g>
<g >
</g>
<g style="fill:#000000; fill-opacity:1.0; 
stroke:#000000; stroke-width:39.3701; stroke-opacity:1; 
stroke-linecap:round; stroke-linejoin:round;">
</g>
<g style="fill:#000000; fill-opacity:1.0; 
stroke:#000000; stroke-width:196.85; stroke-opacity:1; 
stroke-linecap:round; stroke-linejoin:round;">
</g>
<g style="fill:#000000; fill-opacity:0.0; 
stroke:#000000; stroke-width:196.85; stroke-opacity:1; 
stroke-linecap:round; stroke-linejoin:round;">
<path d="M37900 35600
L37900 34800
" />
<path d="M37700 35800
L37900 35600
" />
<path d="M37002 35800
L37700 35800
" />
<path d="M33430 36430
L34700 37700
" />
<path d="M33430 33800
L33430 36430
" />
<path d="M37002 36797
L36900 36900
" />
<path d="M37002 35800
L37002 36797
" />
<path d="M36545 37700
L36000 37700
" />
<path d="M36900 36900
L36900 37345
" />
<path d="M36000 37700
L36500 37700
" />
<path d="M36900 37345
L36545 37700
" />
<path d="M34700 37700
L36000 37700
" />
<path d="M40800 29800
L40900 29700
" />
<path d="M40800 30800
L40800 29800
" />
<path d="M39900 31700
L40800 30800
" />
<path d="M39900 31800
L39900 31700
" />
<path d="M38500 30300
L39300 30300
" />
<path d="M33600 28400
L36600 28400
" />
<path d="M32400 29600
L33600 28400
" />
<path d="M32400 32200
L32400 29600
" />
<path d="M31800 32800
L32400 32200
" />
<path d="M36600 28400
L38500 30300
" />
<path d="M30430 32800
L31800 32800
" />
<path d="M39900 30900
L39900 31800
" />
<path d="M39300 30300
L39900 30900
" />
<path d="M40797 36797
L40900 36900
" />
<path d="M40797 35800
L40797 36797
" />
<path d="M39900 34902
L40797 35800
" />
<path d="M39900 34800
L39900 34902
" />
<path d="M33800 38100
L36700 38100
" />
<path d="M32500 36800
L33800 38100
" />
<path d="M32500 35300
L32500 36800
" />
<path d="M36700 38100
L38500 36300
" />
<path d="M32000 34800
L32500 35300
" />
<path d="M30430 34800
L32000 34800
" />
<path d="M30430 35430
L31400 36400
" />
<path d="M30430 34800
L30430 35430
" />
<path d="M39900 35600
L39900 34800
" />
<path d="M39200 36300
L39900 35600
" />
<path d="M38500 36300
L39200 36300
" />
<path d="M37000 29800
L36900 29700
" />
<path d="M37000 30800
L37000 29800
" />
<path d="M37000 30800
L37700 30800
" />
<path d="M37900 31000
L37900 31800
" />
<path d="M37700 30800
L37900 31000
" />
<path d="M36900 29254
L36345 28700
" />
<path d="M36900 29700
L36900 29254
" />
<path d="M36345 28700
L34700 28700
" />
<path d="M33430 29970
L33430 31800
" />
<path d="M34700 28700
L33430 29970
" />
<path d="M30793 31800
L31300 31800
" />
<path d="M28793 31800
L30793 31800
" />
<path d="M28300 32293
L28793 31800
" />
<path d="M28300 32800
L28300 32293
" />
<path d="M28300 34800
L28300 32800
" />
<path d="M30793 33800
L31300 33800
" />
<path d="M29806 33800
L30793 33800
" />
<path d="M28806 34800
L29806 33800
" />
<path d="M28300 34800
L28806 34800
" />
<path d="M38900 34800
L38900 33853
" />
<path d="M31500 38600
L28300 35400
" />
<path d="M28300 35400
L28300 35306
" />
<path d="M28300 34800
L28300 35400
" />
<path d="M38900 34800
L38900 35700
" />
<path d="M45500 35300
L45500 37100
" />
<path d="M44500 38100
L38900 38100
" />
<path d="M45500 37100
L44500 38100
" />
<path d="M37954 38600
L35100 38600
" />
<path d="M38454 38100
L37954 38600
" />
<path d="M38900 38100
L38454 38100
" />
<path d="M35100 38600
L31500 38600
" />
<path d="M40900 33300
L40900 31800
" />
<path d="M40900 34800
L40900 33300
" />
<path d="M36900 33300
L40900 33300
" />
<path d="M36900 31800
L36900 33300
" />
<path d="M36900 33300
L36900 34800
" />
<path d="M40900 33300
L45500 33300
" />
<path d="M35900 34800
L35900 35800
" />
<path d="M34700 35800
L35900 35800
" />
<path d="M35900 36900
L35900 35800
" />
<path d="M41900 30802
L41902 30800
" />
<path d="M41900 31800
L41900 30802
" />
<path d="M41902 29702
L41900 29700
" />
<path d="M41902 30800
L41902 29702
" />
<path d="M41902 30800
L43100 30800
" />
<path d="M41900 35800
L41900 36900
" />
<path d="M41900 35800
L41900 34800
" />
<path d="M41900 35800
L43100 35800
" />
<path d="M35900 30802
L35897 30800
" />
<path d="M35900 31800
L35900 30802
" />
<path d="M35897 29702
L35900 29700
" />
<path d="M35897 30800
L35897 29702
" />
<path d="M34700 30800
L35897 30800
" />
<path d="M38900 31800
L38900 32750
" />
<path d="M38900 31800
L38900 31354
" />
<path d="M38900 31354
L38900 31000
" />
<path d="M45500 31300
L45500 29400
" />
<path d="M38900 31000
L38900 30900
" />
<path d="M44800 28700
L45500 29400
" />
<path d="M38900 28700
L44800 28700
" />
</g>
<g >
</g>
<g style="fill:#000000; fill-opacity:0.0; 
stroke:#000000; stroke-width:196.85; stroke-opacity:1; 
stroke-linecap:round; stroke-linejoin:round;">
</g>
<g style="fill:#000000; fill-opacity:1.0; 
stroke:#000000; stroke-width:100; stroke-opacity:1; 
stroke-linecap:round; stroke-linejoin:round;">
<path style="fill:#000000; fill-opacity:1.0; 
stroke:#000000; stroke-width:100; stroke-opacity:1; 
stroke-linecap:round; stroke-linejoin:round;fill-rule:evenodd;"
d="M 46984.3,39110.2
27818.9,39110.2
27818.9,35302
27845.5,35323.8
27888.9,35347
27936,35361.3
27951.6,35362.9
27951.6,35382.9
27949.9,35400
27951.6,35417.1
27951.6,35417.1
27955.5,35457.4
27956.4,35466
27956.6,35468.3
27976.5,35534
28008.9,35594.5
28052.4,35647.6
28065.7,35658.5
31241.5,38834.3
31252.4,38847.6
31265.7,38858.5
31265.7,38858.5
31305.5,38891.1
31305.5,38891.1
31366,38923.5
31431.7,38943.4
31482.9,38948.4
31482.9,38948.4
31500,38950.1
31517.1,38948.4
37937.5,38948.4
37954.6,38950.1
37971.7,38948.4
37971.7,38948.4
38022.9,38943.4
38088.6,38923.5
38149.1,38891.1
38202.1,38847.6
38213.1,38834.3
38524.2,38523.2
38539.9,38538.8
38632.4,38600.7
38735.2,38643.2
38844.4,38665
38955.6,38665
39064.8,38643.2
39167.6,38600.7
39260.1,38538.8
39338.8,38460.1
39346.7,38448.4
44482.9,38448.4
44500,38450.1
44517.1,38448.4
44517.1,38448.4
44568.3,38443.4
44634,38423.5
44694.5,38391.1
44747.6,38347.6
44758.5,38334.3
45734.3,37358.5
45747.6,37347.6
45791.1,37294.5
45823.5,37234
45843.4,37168.3
45848.4,37117.1
45848.4,37117.1
45850.1,37100
45848.4,37082.9
45848.4,36141.8
46090.6,36141.8
46139.6,36136.9
46186.7,36122.6
46230.1,36099.4
46268.2,36068.2
46299.4,36030.1
46322.6,35986.7
46336.9,35939.6
46341.8,35890.6
46341.8,34709.4
46336.9,34660.4
46322.6,34613.3
46299.4,34569.9
46268.2,34531.8
46230.1,34500.6
46186.7,34477.4
46139.6,34463.1
46090.6,34458.2
44909.4,34458.2
44860.4,34463.1
44813.3,34477.4
44769.9,34500.6
44731.8,34531.8
44700.6,34569.9
44677.4,34613.3
44663.1,34660.4
44658.2,34709.4
44658.2,35890.6
44663.1,35939.6
44677.4,35986.7
44700.6,36030.1
44731.8,36068.2
44769.9,36099.4
44813.3,36122.6
44860.4,36136.9
44909.4,36141.8
45151.6,36141.8
45151.6,36955.7
44355.7,37751.6
39346.7,37751.6
39338.8,37739.9
39260.1,37661.2
39167.6,37599.3
39064.8,37556.8
38955.6,37535
38844.4,37535
38735.2,37556.8
38632.4,37599.3
38539.9,37661.2
38461.2,37739.9
38454.5,37749.9
38437.5,37751.6
38437.5,37751.6
38386.3,37756.6
38320.6,37776.5
38260.1,37808.9
38260.1,37808.9
38260.1,37808.9
38220.3,37841.5
38220.3,37841.5
38207,37852.4
38196.1,37865.7
37810.3,38251.6
37041.2,38251.6
38644.3,36648.4
39182.9,36648.4
39200,36650.1
39217.1,36648.4
39217.1,36648.4
39268.3,36643.4
39334,36623.5
39394.5,36591.1
39447.6,36547.6
39458.5,36534.3
40134.3,35858.5
40147.6,35847.6
40158.5,35834.3
40191.1,35794.5
40197.3,35782.9
40223.5,35734
40227,35722.2
40300.4,35795.5
40300.4,36046.1
40307.1,36114.3
40327,36179.9
40359.3,36240.3
40402.8,36293.3
40449.2,36331.4
40449.2,36557.7
40399.3,36632.4
40356.8,36735.2
40335,36844.4
40335,36955.6
40356.8,37064.8
40399.3,37167.6
40461.2,37260.1
40539.9,37338.8
40632.4,37400.7
40735.2,37443.2
40844.4,37465
40955.6,37465
41064.8,37443.2
41167.6,37400.7
41260.1,37338.8
41338.8,37260.1
41400,37168.6
41461.2,37260.1
41539.9,37338.8
41632.4,37400.7
41735.2,37443.2
41844.4,37465
41955.6,37465
42064.8,37443.2
42167.6,37400.7
42260.1,37338.8
42338.8,37260.1
42400.7,37167.6
42443.2,37064.8
42465,36955.6
42465,36844.4
42443.2,36735.2
42400.7,36632.4
42338.8,36539.9
42260.1,36461.2
42248.4,36453.3
42248.4,36331.4
42294.9,36293.3
42338.3,36240.3
42370.7,36179.9
42380.2,36148.4
42558.6,36148.4
42600,36210.3
42689.7,36300
42795.1,36370.4
42912.2,36419
43036.6,36443.7
43163.4,36443.7
43287.8,36419
43404.9,36370.4
43510.3,36300
43600,36210.3
43670.4,36104.9
43719,35987.8
43743.7,35863.4
43743.7,35736.6
43719,35612.2
43670.4,35495.1
43600,35389.7
43510.3,35300
43404.9,35229.6
43287.8,35181
43163.4,35156.3
43036.6,35156.3
42912.2,35181
42795.1,35229.6
42689.7,35300
42600,35389.7
42558.6,35451.6
42380.2,35451.6
42370.7,35420.1
42338.3,35359.7
42319.6,35336.8
42372,35272.9
42424.5,35174.7
42456.8,35068.2
42465,34985.2
42465,34614.8
42456.8,34531.8
42424.5,34425.3
42372,34327.1
42301.4,34241.1
42215.4,34170.5
42117.2,34118
42010.8,34085.7
41900,34074.8
41789.2,34085.7
41682.8,34118
41584.6,34170.5
41498.6,34241.1
41428,34327.1
41401.1,34377.5
41342,34287.1
41264.1,34207.7
41172.3,34145
41070,34101.4
41037.4,34094.5
40950,34142.6
40950,34750
40957.9,34750
40957.9,34850
40950,34850
40950,34857.9
40850,34857.9
40850,34850
40842.1,34850
40842.1,34750
40850,34750
40850,34142.6
40762.6,34094.5
40730,34101.4
40627.7,34145
40535.9,34207.7
40458,34287.1
40398.9,34377.5
40372,34327.1
40301.4,34241.1
40215.4,34170.5
40117.2,34118
40010.8,34085.7
39900,34074.8
39789.2,34085.7
39682.8,34118
39584.6,34170.5
39498.6,34241.1
39428,34327.1
39400,34379.5
39372,34327.1
39341.8,34290.3
39393.3,34248
39436.8,34195
39469.1,34134.6
39489,34069
39495.7,34000.8
39495.7,33887.3
44983.4,33887.3
45044.9,34011.5
45192.4,34086.6
45351.8,34131.5
45516.9,34144.4
45681.3,34124.9
45838.7,34073.7
45955.1,34011.5
46016.6,33887.3
45500,33370.7
44983.4,33887.3
39495.7,33887.3
39495.7,33705.5
39489,33637.3
39469.1,33571.7
39436.8,33511.3
39393.3,33458.3
39340.3,33414.8
39279.9,33382.5
39214.3,33362.6
39146.1,33355.9
38653.9,33355.9
38585.7,33362.6
38520.1,33382.5
38459.7,33414.8
38406.7,33458.3
38363.2,33511.3
38330.9,33571.7
38311,33637.3
38304.3,33705.5
38304.3,34000.8
38311,34069
38330.9,34134.6
38363.2,34195
38406.7,34248
38458.2,34290.3
38428,34327.1
38400,34379.5
38372,34327.1
38301.4,34241.1
38215.4,34170.5
38117.2,34118
38010.8,34085.7
37900,34074.8
37789.2,34085.7
37682.8,34118
37584.6,34170.5
37498.6,34241.1
37428,34327.1
37401.1,34377.5
37342,34287.1
37264.1,34207.7
37172.3,34145
37070,34101.4
37037.4,34094.5
36950,34142.6
36950,34750
36957.9,34750
36957.9,34850
36950,34850
36950,34857.9
36850,34857.9
36850,34850
36842.1,34850
36842.1,34750
36850,34750
36850,34142.6
36762.6,34094.5
36730,34101.4
36627.7,34145
36535.9,34207.7
36461.8,34283.2
36461.3,34278.6
36447,34231.4
36423.8,34188
36392.6,34149.9
36354.5,34118.7
36311.1,34095.5
36264,34081.2
36215,34076.3
35585,34076.3
35536,34081.2
35488.9,34095.5
35445.5,34118.7
35407.4,34149.9
35376.2,34188
35353,34231.4
35338.7,34278.6
35333.8,34327.6
35333.8,35272.4
35338.7,35321.4
35353,35368.6
35376.2,35412
35407.4,35450.1
35409.2,35451.6
35241.4,35451.6
35200,35389.7
35110.3,35300
35004.9,35229.6
34887.8,35181
34763.4,35156.3
34636.6,35156.3
34512.2,35181
34395.1,35229.6
34289.7,35300
34200,35389.7
34129.6,35495.1
34081,35612.2
34056.3,35736.6
34056.3,35863.4
34081,35987.8
34129.6,36104.9
34200,36210.3
34289.7,36300
34395.1,36370.4
34512.2,36419
34636.6,36443.7
34763.4,36443.7
34887.8,36419
35004.9,36370.4
35110.3,36300
35200,36210.3
35241.4,36148.4
35419.8,36148.4
35429.3,36179.9
35461.7,36240.3
35505.1,36293.3
35551.6,36331.4
35551.6,36453.3
35539.9,36461.2
35461.2,36539.9
35399.3,36632.4
35356.8,36735.2
35335,36844.4
35335,36955.6
35356.8,37064.8
35399.3,37167.6
35461.2,37260.1
35539.9,37338.8
35558.9,37351.6
34844.3,37351.6
33778.4,36285.7
33778.4,34246.7
33790.1,34238.8
33868.8,34160.1
33930.7,34067.6
33973.2,33964.8
33995,33855.6
33995,33744.4
33973.2,33635.2
33930.7,33532.4
33868.8,33439.9
33790.1,33361.2
33723.8,33316.9
44655.6,33316.9
44675.1,33481.3
44726.3,33638.7
44788.5,33755.1
44912.7,33816.6
45429.3,33300
45570.7,33300
46087.3,33816.6
46211.5,33755.1
46286.6,33607.6
46331.5,33448.2
46344.4,33283.1
46324.9,33118.7
46273.7,32961.3
46211.5,32844.9
46087.3,32783.4
45570.7,33300
45429.3,33300
44912.7,32783.4
44788.5,32844.9
44713.4,32992.4
44668.5,33151.8
44655.6,33316.9
33723.8,33316.9
33697.6,33299.3
33594.8,33256.8
33485.6,33235
33374.4,33235
33265.2,33256.8
33162.4,33299.3
33069.9,33361.2
32991.2,33439.9
32929.3,33532.4
32886.8,33635.2
32865,33744.4
32865,33855.6
32886.8,33964.8
32929.3,34067.6
32991.2,34160.1
33069.9,34238.8
33081.6,34246.7
33081.6,36412.9
33079.9,36430
33086.6,36498.3
33106.5,36564
33138.9,36624.5
33171.5,36664.3
33171.5,36664.3
33182.4,36677.6
33195.7,36688.5
34258.8,37751.6
33944.3,37751.6
32848.4,36655.7
32848.4,35317.1
32850.1,35300
32848.4,35282.9
32848.4,35282.9
32843.4,35231.7
32823.5,35166
32791.1,35105.5
32775.6,35086.6
32758.5,35065.7
32758.5,35065.7
32747.6,35052.4
32734.3,35041.5
32258.5,34565.7
32247.6,34552.4
32194.5,34508.9
32134,34476.5
32068.3,34456.6
32017.1,34451.6
32017.1,34451.6
32000,34449.9
31982.9,34451.6
30876.7,34451.6
30868.8,34439.9
30790.1,34361.2
30697.6,34299.3
30594.8,34256.8
30485.6,34235
30374.4,34235
30265.2,34256.8
30162.4,34299.3
30069.9,34361.2
29991.2,34439.9
29929.3,34532.4
29886.8,34635.2
29865,34744.4
29865,34855.6
29886.8,34964.8
29929.3,35067.6
29991.2,35160.1
30069.9,35238.8
30081.6,35246.7
30081.6,35412.9
30079.9,35430
30086.6,35498.3
30106.5,35564
30138.9,35624.5
30171.5,35664.3
30171.5,35664.3
30182.4,35677.6
30195.7,35688.5
30770.8,36263.6
30756.3,36336.6
30756.3,36463.4
30781,36587.8
30829.6,36704.9
30900,36810.3
30989.7,36900
31095.1,36970.4
31212.2,37019
31336.6,37043.7
31463.4,37043.7
31587.8,37019
31704.9,36970.4
31810.3,36900
31900,36810.3
31970.4,36704.9
32019,36587.8
32043.7,36463.4
32043.7,36336.6
32019,36212.2
31970.4,36095.1
31900,35989.7
31810.3,35900
31704.9,35829.6
31587.8,35781
31463.4,35756.3
31336.6,35756.3
31263.6,35770.8
30778.4,35285.7
30778.4,35246.7
30790.1,35238.8
30868.8,35160.1
30876.7,35148.4
31855.7,35148.4
32151.6,35444.3
32151.6,36782.9
32149.9,36800
32156.6,36868.3
32176.5,36934
32208.9,36994.5
32241.5,37034.3
32241.5,37034.3
32252.4,37047.6
32265.7,37058.5
33458.8,38251.6
31644.3,38251.6
28729.8,35337.1
28754.5,35323.8
28792.6,35292.6
28823.8,35254.5
28847,35211.1
28861.3,35164
28863.3,35144.6
28875.2,35143.4
28940.8,35123.5
29001.4,35091.1
29054.4,35047.6
29065.3,35034.3
29951.2,34148.4
30737.1,34148.4
30738.7,34164
30753,34211.1
30776.2,34254.5
30807.4,34292.6
30845.5,34323.8
30888.9,34347
30936,34361.3
30985,34366.2
31615,34366.2
31664,34361.3
31711.1,34347
31754.5,34323.8
31792.6,34292.6
31823.8,34254.5
31847,34211.1
31861.3,34164
31866.2,34115
31866.2,33485
31861.3,33436
31847,33388.9
31823.8,33345.5
31792.6,33307.4
31754.5,33276.2
31711.1,33253
31664,33238.7
31615,33233.8
30985,33233.8
30936,33238.7
30888.9,33253
30845.5,33276.2
30807.4,33307.4
30776.2,33345.5
30753,33388.9
30738.7,33436
30737.1,33451.6
29824,33451.6
29806.8,33449.9
29789.7,33451.6
29789.7,33451.6
29738.5,33456.6
29672.9,33476.5
29612.3,33508.9
29600.7,33518.4
29572.6,33541.5
29572.6,33541.5
29559.3,33552.4
29548.4,33565.7
28798.9,34315.2
28792.6,34307.4
28754.5,34276.2
28711.1,34253
28664,34238.7
28648.4,34237.1
28648.4,33362.9
28664,33361.3
28711.1,33347
28754.5,33323.8
28792.6,33292.6
28823.8,33254.5
28847,33211.1
28861.3,33164
28866.2,33115
28866.2,32485
28861.3,32436
28847,32388.9
28823.8,32345.5
28792.6,32307.4
28784.8,32301.1
28937.5,32148.4
30350,32148.4
30350,32239.9
30265.2,32256.8
30162.4,32299.3
30069.9,32361.2
29991.2,32439.9
29929.3,32532.4
29886.8,32635.2
29865,32744.4
29865,32855.6
29886.8,32964.8
29929.3,33067.6
29991.2,33160.1
30069.9,33238.8
30162.4,33300.7
30265.2,33343.2
30374.4,33365
30485.6,33365
30594.8,33343.2
30697.6,33300.7
30790.1,33238.8
30868.8,33160.1
30876.7,33148.4
31782.9,33148.4
31800,33150.1
31817.1,33148.4
31817.1,33148.4
31868.3,33143.4
31934,33123.5
31994.5,33091.1
32047.6,33047.6
32058.5,33034.3
32634.3,32458.5
32647.6,32447.6
32662.4,32429.5
32691.1,32394.5
32691.1,32394.5
32723.5,32334
32743.4,32268.3
32748.4,32217.1
32748.4,32217.1
32750.1,32200
32748.4,32182.9
32748.4,29744.3
33744.3,28748.4
34158.8,28748.4
33195.7,29711.5
33182.4,29722.4
33138.9,29775.5
33106.5,29836
33096.7,29868.3
33087.1,29900
33086.6,29901.7
33081.6,29952.9
33081.6,29952.9
33079.9,29970
33081.6,29987.1
33081.6,31353.3
33069.9,31361.2
32991.2,31439.9
32929.3,31532.4
32886.8,31635.2
32865,31744.4
32865,31855.6
32886.8,31964.8
32929.3,32067.6
32991.2,32160.1
33069.9,32238.8
33162.4,32300.7
33265.2,32343.2
33374.4,32365
33485.6,32365
33594.8,32343.2
33697.6,32300.7
33790.1,32238.8
33868.8,32160.1
33930.7,32067.6
33973.2,31964.8
33995,31855.6
33995,31744.4
33973.2,31635.2
33930.7,31532.4
33868.8,31439.9
33790.1,31361.2
33778.4,31353.3
33778.4,30114.3
34844.3,29048.4
36201.1,29048.4
36476.8,29324.2
36461.2,29339.9
36400,29431.4
36338.8,29339.9
36260.1,29261.2
36167.6,29199.3
36064.8,29156.8
35955.6,29135
35844.4,29135
35735.2,29156.8
35632.4,29199.3
35539.9,29261.2
35461.2,29339.9
35399.3,29432.4
35356.8,29535.2
35335,29644.4
35335,29755.6
35356.8,29864.8
35399.3,29967.6
35461.2,30060.1
35539.9,30138.8
35549.2,30145.1
35549.2,30268.6
35502.8,30306.7
35459.3,30359.7
35427,30420.1
35417.4,30451.6
35241.4,30451.6
35200,30389.7
35110.3,30300
35004.9,30229.6
34887.8,30181
34763.4,30156.3
34636.6,30156.3
34512.2,30181
34395.1,30229.6
34289.7,30300
34200,30389.7
34129.6,30495.1
34081,30612.2
34056.3,30736.6
34056.3,30863.4
34081,30987.8
34129.6,31104.9
34200,31210.3
34289.7,31300
34395.1,31370.4
34512.2,31419
34636.6,31443.7
34763.4,31443.7
34887.8,31419
35004.9,31370.4
35110.3,31300
35200,31210.3
35241.4,31148.4
35417.4,31148.4
35427,31179.9
35459.3,31240.3
35479.3,31264.6
35428,31327.1
35375.5,31425.3
35343.2,31531.8
35335,31614.8
35335,31985.2
35343.2,32068.2
35375.5,32174.7
35428,32272.9
35498.6,32358.9
35584.6,32429.5
35682.8,32482
35789.2,32514.3
35900,32525.2
36010.8,32514.3
36117.2,32482
36215.4,32429.5
36301.4,32358.9
36372,32272.9
36398.9,32222.5
36458,32312.9
36535.9,32392.3
36627.7,32455
36730,32498.6
36762.6,32505.5
36850,32457.4
36850,31850
36842.1,31850
36842.1,31750
36850,31750
36850,31742.1
36950,31742.1
36950,31750
36957.9,31750
36957.9,31850
36950,31850
36950,32457.4
37037.4,32505.5
37070,32498.6
37172.3,32455
37264.1,32392.3
37342,32312.9
37401.1,32222.5
37428,32272.9
37498.6,32358.9
37584.6,32429.5
37682.8,32482
37789.2,32514.3
37900,32525.2
38010.8,32514.3
38117.2,32482
38215.4,32429.5
38301.4,32358.9
38372,32272.9
38400,32220.5
38428,32272.9
38460.2,32312.2
38459.7,32312.4
38406.7,32355.9
38363.2,32408.9
38330.9,32469.4
38311,32534.9
38304.3,32603.1
38304.3,32898.4
38311,32966.6
38330.9,33032.2
38363.2,33092.7
38406.7,33145.7
38459.7,33189.1
38520.1,33221.4
38585.7,33241.3
38653.9,33248.1
39146.1,33248.1
39214.3,33241.3
39279.9,33221.4
39340.3,33189.1
39393.3,33145.7
39436.8,33092.7
39469.1,33032.2
39489,32966.6
39495.7,32898.4
39495.7,32712.7
44983.4,32712.7
45500,33229.3
46016.6,32712.7
45955.1,32588.5
45807.6,32513.4
45648.2,32468.5
45483.1,32455.6
45318.7,32475.1
45161.3,32526.3
45044.9,32588.5
44983.4,32712.7
39495.7,32712.7
39495.7,32603.1
39489,32534.9
39469.1,32469.4
39436.8,32408.9
39393.3,32355.9
39340.3,32312.4
39339.8,32312.2
39372,32272.9
39400,32220.5
39428,32272.9
39498.6,32358.9
39584.6,32429.5
39682.8,32482
39789.2,32514.3
39900,32525.2
40010.8,32514.3
40117.2,32482
40215.4,32429.5
40301.4,32358.9
40372,32272.9
40398.9,32222.5
40458,32312.9
40535.9,32392.3
40627.7,32455
40730,32498.6
40762.6,32505.5
40850,32457.4
40850,31850
40842.1,31850
40842.1,31750
40850,31750
40850,31742.1
40950,31742.1
40950,31750
40957.9,31750
40957.9,31850
40950,31850
40950,32457.4
41037.4,32505.5
41070,32498.6
41172.3,32455
41264.1,32392.3
41342,32312.9
41401.1,32222.5
41428,32272.9
41498.6,32358.9
41584.6,32429.5
41682.8,32482
41789.2,32514.3
41900,32525.2
42010.8,32514.3
42117.2,32482
42215.4,32429.5
42301.4,32358.9
42372,32272.9
42424.5,32174.7
42456.8,32068.2
42465,31985.2
42465,31614.8
42456.8,31531.8
42424.5,31425.3
42372,31327.1
42320.7,31264.6
42340.7,31240.3
42373,31179.9
42382.6,31148.4
42558.6,31148.4
42600,31210.3
42689.7,31300
42795.1,31370.4
42912.2,31419
43036.6,31443.7
43163.4,31443.7
43287.8,31419
43404.9,31370.4
43510.3,31300
43600,31210.3
43670.4,31104.9
43719,30987.8
43743.7,30863.4
43743.7,30736.6
43719,30612.2
43670.4,30495.1
43600,30389.7
43510.3,30300
43404.9,30229.6
43287.8,30181
43163.4,30156.3
43036.6,30156.3
42912.2,30181
42795.1,30229.6
42689.7,30300
42600,30389.7
42558.6,30451.6
42382.6,30451.6
42373,30420.1
42340.7,30359.7
42297.2,30306.7
42250.8,30268.6
42250.8,30145.1
42260.1,30138.8
42338.8,30060.1
42400.7,29967.6
42443.2,29864.8
42465,29755.6
42465,29644.4
42443.2,29535.2
42400.7,29432.4
42338.8,29339.9
42260.1,29261.2
42167.6,29199.3
42064.8,29156.8
41955.6,29135
41844.4,29135
41735.2,29156.8
41632.4,29199.3
41539.9,29261.2
41461.2,29339.9
41400,29431.4
41338.8,29339.9
41260.1,29261.2
41167.6,29199.3
41064.8,29156.8
40955.6,29135
40844.4,29135
40735.2,29156.8
40632.4,29199.3
40539.9,29261.2
40461.2,29339.9
40399.3,29432.4
40356.8,29535.2
40335,29644.4
40335,29755.6
40356.8,29864.8
40399.3,29967.6
40451.6,30045.8
40451.6,30268.6
40405.1,30306.7
40361.7,30359.7
40329.3,30420.1
40309.4,30485.7
40302.7,30553.9
40302.7,30804.5
40246.3,30861
40243.4,30831.7
40223.5,30766
40191.1,30705.5
40147.6,30652.4
40134.3,30641.5
39558.5,30065.7
39547.6,30052.4
39494.5,30008.9
39434,29976.5
39368.3,29956.6
39317.1,29951.6
39317.1,29951.6
39300,29949.9
39282.9,29951.6
38644.3,29951.6
37337.1,28644.4
38335,28644.4
38335,28755.6
38356.8,28864.8
38399.3,28967.6
38461.2,29060.1
38539.9,29138.8
38632.4,29200.7
38735.2,29243.2
38844.4,29265
38955.6,29265
39064.8,29243.2
39167.6,29200.7
39260.1,29138.8
39338.8,29060.1
39346.7,29048.4
44655.7,29048.4
45151.6,29544.3
45151.6,30534.5
45101.8,30555.1
44964.2,30647.1
44847.1,30764.2
44755.1,30901.8
44691.8,31054.8
44659.4,31217.2
44659.4,31382.8
44691.8,31545.2
44755.1,31698.2
44847.1,31835.8
44964.2,31952.9
45101.8,32044.9
45254.8,32108.2
45417.2,32140.6
45582.8,32140.6
45745.2,32108.2
45898.2,32044.9
46035.8,31952.9
46152.9,31835.8
46244.9,31698.2
46308.2,31545.2
46340.6,31382.8
46340.6,31217.2
46308.2,31054.8
46244.9,30901.8
46152.9,30764.2
46035.8,30647.1
45898.2,30555.1
45848.4,30534.5
45848.4,29417.1
45850.1,29400
45848.4,29382.9
45848.4,29382.9
45843.4,29331.7
45823.5,29266
45791.1,29205.5
45747.6,29152.4
45734.3,29141.5
45058.5,28465.7
45047.6,28452.4
44994.5,28408.9
44934,28376.5
44868.3,28356.6
44817.1,28351.6
44817.1,28351.6
44800,28349.9
44782.9,28351.6
39346.7,28351.6
39338.8,28339.9
39260.1,28261.2
39167.6,28199.3
39064.8,28156.8
38955.6,28135
38844.4,28135
38735.2,28156.8
38632.4,28199.3
38539.9,28261.2
38461.2,28339.9
38399.3,28432.4
38356.8,28535.2
38335,28644.4
37337.1,28644.4
36858.5,28165.7
36847.6,28152.4
36794.5,28108.9
36734,28076.5
36668.3,28056.6
36617.1,28051.6
36617.1,28051.6
36600,28049.9
36582.9,28051.6
33617.1,28051.6
33600,28049.9
33582.9,28051.6
33582.9,28051.6
33537.5,28056
33531.7,28056.6
33511.8,28062.7
33466,28076.5
33405.5,28108.9
33377.8,28131.6
33365.7,28141.5
33365.7,28141.5
33352.4,28152.4
33341.5,28165.7
32165.7,29341.5
32152.4,29352.4
32141.5,29365.7
32141.5,29365.7
32108.9,29405.5
32076.5,29466
32056.6,29531.7
32049.9,29600
32051.6,29617.1
32051.6,31950
31866.2,31950
31866.2,31485
31861.3,31436
31847,31388.9
31823.8,31345.5
31792.6,31307.4
31754.5,31276.2
31711.1,31253
31664,31238.7
31615,31233.8
30985,31233.8
30936,31238.7
30888.9,31253
30845.5,31276.2
30807.4,31307.4
30776.2,31345.5
30753,31388.9
30738.7,31436
30737.1,31451.6
28810.3,31451.6
28793.1,31449.9
28776,31451.6
28776,31451.6
28724.8,31456.6
28659.2,31476.5
28598.6,31508.9
28558.9,31541.5
28558.9,31541.5
28545.6,31552.4
28534.7,31565.7
28065.7,32034.7
28052.4,32045.6
28041.5,32058.9
28041.5,32058.9
28008.9,32098.6
27976.5,32159.2
27956.6,32224.8
27955.4,32236.7
27936,32238.7
27888.9,32253
27845.5,32276.2
27818.9,32298
27818.9,30347
30023.7,30347
30061.4,30451.1
30175.4,30506.6
30298.1,30538.7
30424.6,30546.3
30550.3,30529.1
30670.1,30487.7
30738.6,30451.1
30776.3,30347
30400,29970.7
30023.7,30347
27818.9,30347
27818.9,29924.6
29753.7,29924.6
29770.9,30050.3
29812.3,30170.1
29848.9,30238.6
29953,30276.3
30329.3,29900
30470.7,29900
30847,30276.3
30951.1,30238.6
31006.6,30124.6
31038.7,30001.9
31046.3,29875.4
31029.1,29749.7
30987.7,29629.9
30951.1,29561.4
30847,29523.7
30470.7,29900
30329.3,29900
29953,29523.7
29848.9,29561.4
29793.4,29675.4
29761.3,29798.1
29753.7,29924.6
27818.9,29924.6
27818.9,29453
30023.7,29453
30400,29829.3
30776.3,29453
30738.6,29348.9
30624.6,29293.4
30501.9,29261.3
30375.4,29253.7
30249.7,29270.9
30129.9,29312.3
30061.4,29348.9
30023.7,29453
27818.9,29453
27818.9,27818.9
46984.3,27818.9
Z" /> 
</g>
</g>
<g style="fill:#FFFFFF; fill-opacity:1.0; 
stroke:#FFFFFF; stroke-width:100; stroke-opacity:1; 
stroke-linecap:round; stroke-linejoin:round;">
</g>
<g style="fill:#FFFFFF; fill-opacity:1.0; 
stroke:#FFFFFF; stroke-width:0; stroke-opacity:1; 
stroke-linecap:round; stroke-linejoin:round;">
<circle cx="38900" cy="35700" r="68.8976" /> 
</g>
<g style="fill:#FFFFFF; fill-opacity:1.0; 
stroke:#FFFFFF; stroke-width:39.3701; stroke-opacity:1; 
stroke-linecap:round; stroke-linejoin:round;">
</g>
<g style="fill:#FFFFFF; fill-opacity:1.0; 
stroke:#FFFFFF; stroke-width:0; stroke-opacity:1; 
stroke-linecap:round; stroke-linejoin:round;">
<circle cx="38900" cy="38100" r="68.8976" /> 
</g>
<g style="fill:#FFFFFF; fill-opacity:1.0; 
stroke:#FFFFFF; stroke-width:39.3701; stroke-opacity:1; 
stroke-linecap:round; stroke-linejoin:round;">
</g>
<g style="fill:#FFFFFF; fill-opacity:1.0; 
stroke:#FFFFFF; stroke-width:0; stroke-opacity:1; 
stroke-linecap:round; stroke-linejoin:round;">
<circle cx="38900" cy="30900" r="68.8976" /> 
</g>
<g style="fill:#FFFFFF; fill-opacity:1.0; 
stroke:#FFFFFF; stroke-width:39.3701; stroke-opacity:1; 
stroke-linecap:round; stroke-linejoin:round;">
</g>
<g style="fill:#FFFFFF; fill-opacity:1.0; 
stroke:#FFFFFF; stroke-width:0; stroke-opacity:1; 
stroke-linecap:round; stroke-linejoin:round;">
<circle cx="38900" cy="28700" r="68.8976" /> 
</g>
<g style="fill:#FFFFFF; fill-opacity:1.0; 
stroke:#FFFFFF; stroke-width:39.3701; stroke-opacity:1; 
stroke-linecap:round; stroke-linejoin:round;">
</g>
<g style="fill:#FFFFFF; fill-opacity:1.0; 
stroke:#FFFFFF; stroke-width:0; stroke-opacity:1; 
stroke-linecap:round; stroke-linejoin:round;">
<circle cx="35900" cy="31800" r="68.8976" /> 
</g>
<g style="fill:#FFFFFF; fill-opacity:1.0; 
stroke:#FFFFFF; stroke-width:39.3701; stroke-opacity:1; 
stroke-linecap:round; stroke-linejoin:round;">
</g>
<g style="fill:#FFFFFF; fill-opacity:1.0; 
stroke:#FFFFFF; stroke-width:0; stroke-opacity:1; 
stroke-linecap:round; stroke-linejoin:round;">
<circle cx="41900" cy="34800" r="68.8976" /> 
</g>
<g style="fill:#FFFFFF; fill-opacity:1.0; 
stroke:#FFFFFF; stroke-width:39.3701; stroke-opacity:1; 
stroke-linecap:round; stroke-linejoin:round;">
</g>
<g style="fill:#FFFFFF; fill-opacity:1.0; 
stroke:#FFFFFF; stroke-width:0; stroke-opacity:1; 
stroke-linecap:round; stroke-linejoin:round;">
<circle cx="36900" cy="31800" r="68.8976" /> 
</g>
<g style="fill:#FFFFFF; fill-opacity:1.0; 
stroke:#FFFFFF; stroke-width:39.3701; stroke-opacity:1; 
stroke-linecap:round; stroke-linejoin:round;">
</g>
<g style="fill:#FFFFFF; fill-opacity:1.0; 
stroke:#FFFFFF; stroke-width:0; stroke-opacity:1; 
stroke-linecap:round; stroke-linejoin:round;">
<circle cx="40900" cy="34800" r="68.8976" /> 
</g>
<g style="fill:#FFFFFF; fill-opacity:1.0; 
stroke:#FFFFFF; stroke-width:39.3701; stroke-opacity:1; 
stroke-linecap:round; stroke-linejoin:round;">
</g>
<g style="fill:#FFFFFF; fill-opacity:1.0; 
stroke:#FFFFFF; stroke-width:0; stroke-opacity:1; 
stroke-linecap:round; stroke-linejoin:round;">
<circle cx="37900" cy="31800" r="68.8976" /> 
</g>
<g style="fill:#FFFFFF; fill-opacity:1.0; 
stroke:#FFFFFF; stroke-width:39.3701; stroke-opacity:1; 
stroke-linecap:round; stroke-linejoin:round;">
</g>
<g style="fill:#FFFFFF; fill-opacity:1.0; 
stroke:#FFFFFF; stroke-width:0; stroke-opacity:1; 
stroke-linecap:round; stroke-linejoin:round;">
<circle cx="39900" cy="34800" r="68.8976" /> 
</g>
<g style="fill:#FFFFFF; fill-opacity:1.0; 
stroke:#FFFFFF; stroke-width:39.3701; stroke-opacity:1; 
stroke-linecap:round; stroke-linejoin:round;">
</g>
<g style="fill:#FFFFFF; fill-opacity:1.0; 
stroke:#FFFFFF; stroke-width:0; stroke-opacity:1; 
stroke-linecap:round; stroke-linejoin:round;">
<circle cx="38900" cy="31800" r="68.8976" /> 
</g>
<g style="fill:#FFFFFF; fill-opacity:1.0; 
stroke:#FFFFFF; stroke-width:39.3701; stroke-opacity:1; 
stroke-linecap:round; stroke-linejoin:round;">
</g>
<g style="fill:#FFFFFF; fill-opacity:1.0; 
stroke:#FFFFFF; stroke-width:0; stroke-opacity:1; 
stroke-linecap:round; stroke-linejoin:round;">
<circle cx="38900" cy="34800" r="68.8976" /> 
</g>
<g style="fill:#FFFFFF; fill-opacity:1.0; 
stroke:#FFFFFF; stroke-width:39.3701; stroke-opacity:1; 
stroke-linecap:round; stroke-linejoin:round;">
</g>
<g style="fill:#FFFFFF; fill-opacity:1.0; 
stroke:#FFFFFF; stroke-width:0; stroke-opacity:1; 
stroke-linecap:round; stroke-linejoin:round;">
<circle cx="39900" cy="31800" r="68.8976" /> 
</g>
<g style="fill:#FFFFFF; fill-opacity:1.0; 
stroke:#FFFFFF; stroke-width:39.3701; stroke-opacity:1; 
stroke-linecap:round; stroke-linejoin:round;">
</g>
<g style="fill:#FFFFFF; fill-opacity:1.0; 
stroke:#FFFFFF; stroke-width:0; stroke-opacity:1; 
stroke-linecap:round; stroke-linejoin:round;">
<circle cx="37900" cy="34800" r="68.8976" /> 
</g>
<g style="fill:#FFFFFF; fill-opacity:1.0; 
stroke:#FFFFFF; stroke-width:39.3701; stroke-opacity:1; 
stroke-linecap:round; stroke-linejoin:round;">
</g>
<g style="fill:#FFFFFF; fill-opacity:1.0; 
stroke:#FFFFFF; stroke-width:0; stroke-opacity:1; 
stroke-linecap:round; stroke-linejoin:round;">
<circle cx="40900" cy="31800" r="68.8976" /> 
</g>
<g style="fill:#FFFFFF; fill-opacity:1.0; 
stroke:#FFFFFF; stroke-width:39.3701; stroke-opacity:1; 
stroke-linecap:round; stroke-linejoin:round;">
</g>
<g style="fill:#FFFFFF; fill-opacity:1.0; 
stroke:#FFFFFF; stroke-width:0; stroke-opacity:1; 
stroke-linecap:round; stroke-linejoin:round;">
<circle cx="36900" cy="34800" r="68.8976" /> 
</g>
<g style="fill:#FFFFFF; fill-opacity:1.0; 
stroke:#FFFFFF; stroke-width:39.3701; stroke-opacity:1; 
stroke-linecap:round; stroke-linejoin:round;">
</g>
<g style="fill:#FFFFFF; fill-opacity:1.0; 
stroke:#FFFFFF; stroke-width:0; stroke-opacity:1; 
stroke-linecap:round; stroke-linejoin:round;">
<circle cx="41900" cy="31800" r="68.8976" /> 
</g>
<g style="fill:#FFFFFF; fill-opacity:1.0; 
stroke:#FFFFFF; stroke-width:39.3701; stroke-opacity:1; 
stroke-linecap:round; stroke-linejoin:round;">
</g>
<g style="fill:#FFFFFF; fill-opacity:1.0; 
stroke:#FFFFFF; stroke-width:0; stroke-opacity:1; 
stroke-linecap:round; stroke-linejoin:round;">
<circle cx="35900" cy="34800" r="68.8976" /> 
</g>
<g style="fill:#FFFFFF; fill-opacity:1.0; 
stroke:#FFFFFF; stroke-width:39.3701; stroke-opacity:1; 
stroke-linecap:round; stroke-linejoin:round;">
</g>
<g style="fill:#FFFFFF; fill-opacity:1.0; 
stroke:#FFFFFF; stroke-width:0; stroke-opacity:1; 
stroke-linecap:round; stroke-linejoin:round;">
<circle cx="30400" cy="29900" r="68.8976" /> 
</g>
<g style="fill:#FFFFFF; fill-opacity:1.0; 
stroke:#FFFFFF; stroke-width:39.3701; stroke-opacity:1; 
stroke-linecap:round; stroke-linejoin:round;">
</g>
<g style="fill:#FFFFFF; fill-opacity:1.0; 
stroke:#FFFFFF; stroke-width:0; stroke-opacity:1; 
stroke-linecap:round; stroke-linejoin:round;">
<circle cx="31400" cy="36400" r="68.8976" /> 
</g>
<g style="fill:#FFFFFF; fill-opacity:1.0; 
stroke:#FFFFFF; stroke-width:39.3701; stroke-opacity:1; 
stroke-linecap:round; stroke-linejoin:round;">
</g>
<g style="fill:#FFFFFF; fill-opacity:1.0; 
stroke:#FFFFFF; stroke-width:0; stroke-opacity:1; 
stroke-linecap:round; stroke-linejoin:round;">
<circle cx="36900" cy="36900" r="68.8976" /> 
</g>
<g style="fill:#FFFFFF; fill-opacity:1.0; 
stroke:#FFFFFF; stroke-width:39.3701; stroke-opacity:1; 
stroke-linecap:round; stroke-linejoin:round;">
</g>
<g style="fill:#FFFFFF; fill-opacity:1.0; 
stroke:#FFFFFF; stroke-width:0; stroke-opacity:1; 
stroke-linecap:round; stroke-linejoin:round;">
<circle cx="35900" cy="36900" r="68.8976" /> 
</g>
<g style="fill:#FFFFFF; fill-opacity:1.0; 
stroke:#FFFFFF; stroke-width:39.3701; stroke-opacity:1; 
stroke-linecap:round; stroke-linejoin:round;">
</g>
<g style="fill:#FFFFFF; fill-opacity:1.0; 
stroke:#FFFFFF; stroke-width:0; stroke-opacity:1; 
stroke-linecap:round; stroke-linejoin:round;">
<circle cx="45500" cy="31300" r="68.8976" /> 
</g>
<g style="fill:#FFFFFF; fill-opacity:1.0; 
stroke:#FFFFFF; stroke-width:39.3701; stroke-opacity:1; 
stroke-linecap:round; stroke-linejoin:round;">
</g>
<g style="fill:#FFFFFF; fill-opacity:1.0; 
stroke:#FFFFFF; stroke-width:0; stroke-opacity:1; 
stroke-linecap:round; stroke-linejoin:round;">
<circle cx="45500" cy="33300" r="68.8976" /> 
</g>
<g style="fill:#FFFFFF; fill-opacity:1.0; 
stroke:#FFFFFF; stroke-width:39.3701; stroke-opacity:1; 
stroke-linecap:round; stroke-linejoin:round;">
</g>
<g style="fill:#FFFFFF; fill-opacity:1.0; 
stroke:#FFFFFF; stroke-width:0; stroke-opacity:1; 
stroke-linecap:round; stroke-linejoin:round;">
<circle cx="45500" cy="35300" r="68.8976" /> 
</g>
<g style="fill:#FFFFFF; fill-opacity:1.0; 
stroke:#FFFFFF; stroke-width:39.3701; stroke-opacity:1; 
stroke-linecap:round; stroke-linejoin:round;">
</g>
<g style="fill:#FFFFFF; fill-opacity:1.0; 
stroke:#FFFFFF; stroke-width:0; stroke-opacity:1; 
stroke-linecap:round; stroke-linejoin:round;">
<circle cx="33430" cy="33800" r="68.8976" /> 
</g>
<g style="fill:#FFFFFF; fill-opacity:1.0; 
stroke:#FFFFFF; stroke-width:39.3701; stroke-opacity:1; 
stroke-linecap:round; stroke-linejoin:round;">
</g>
<g style="fill:#FFFFFF; fill-opacity:1.0; 
stroke:#FFFFFF; stroke-width:0; stroke-opacity:1; 
stroke-linecap:round; stroke-linejoin:round;">
<circle cx="31300" cy="33800" r="68.8976" /> 
</g>
<g style="fill:#FFFFFF; fill-opacity:1.0; 
stroke:#FFFFFF; stroke-width:39.3701; stroke-opacity:1; 
stroke-linecap:round; stroke-linejoin:round;">
</g>
<g style="fill:#FFFFFF; fill-opacity:1.0; 
stroke:#FFFFFF; stroke-width:0; stroke-opacity:1; 
stroke-linecap:round; stroke-linejoin:round;">
<circle cx="36900" cy="29700" r="68.8976" /> 
</g>
<g style="fill:#FFFFFF; fill-opacity:1.0; 
stroke:#FFFFFF; stroke-width:39.3701; stroke-opacity:1; 
stroke-linecap:round; stroke-linejoin:round;">
</g>
<g style="fill:#FFFFFF; fill-opacity:1.0; 
stroke:#FFFFFF; stroke-width:0; stroke-opacity:1; 
stroke-linecap:round; stroke-linejoin:round;">
<circle cx="35900" cy="29700" r="68.8976" /> 
</g>
<g style="fill:#FFFFFF; fill-opacity:1.0; 
stroke:#FFFFFF; stroke-width:39.3701; stroke-opacity:1; 
stroke-linecap:round; stroke-linejoin:round;">
</g>
<g style="fill:#FFFFFF; fill-opacity:1.0; 
stroke:#FFFFFF; stroke-width:0; stroke-opacity:1; 
stroke-linecap:round; stroke-linejoin:round;">
<circle cx="34700" cy="30800" r="68.8976" /> 
</g>
<g style="fill:#FFFFFF; fill-opacity:1.0; 
stroke:#FFFFFF; stroke-width:39.3701; stroke-opacity:1; 
stroke-linecap:round; stroke-linejoin:round;">
</g>
<g style="fill:#FFFFFF; fill-opacity:1.0; 
stroke:#FFFFFF; stroke-width:0; stroke-opacity:1; 
stroke-linecap:round; stroke-linejoin:round;">
<circle cx="43100" cy="30800" r="68.8976" /> 
</g>
<g style="fill:#FFFFFF; fill-opacity:1.0; 
stroke:#FFFFFF; stroke-width:39.3701; stroke-opacity:1; 
stroke-linecap:round; stroke-linejoin:round;">
</g>
<g style="fill:#FFFFFF; fill-opacity:1.0; 
stroke:#FFFFFF; stroke-width:0; stroke-opacity:1; 
stroke-linecap:round; stroke-linejoin:round;">
<circle cx="43100" cy="35800" r="68.8976" /> 
</g>
<g style="fill:#FFFFFF; fill-opacity:1.0; 
stroke:#FFFFFF; stroke-width:39.3701; stroke-opacity:1; 
stroke-linecap:round; stroke-linejoin:round;">
</g>
<g style="fill:#FFFFFF; fill-opacity:1.0; 
stroke:#FFFFFF; stroke-width:0; stroke-opacity:1; 
stroke-linecap:round; stroke-linejoin:round;">
<circle cx="34700" cy="35800" r="68.8976" /> 
</g>
<g style="fill:#FFFFFF; fill-opacity:1.0; 
stroke:#FFFFFF; stroke-width:39.3701; stroke-opacity:1; 
stroke-linecap:round; stroke-linejoin:round;">
</g>
<g style="fill:#FFFFFF; fill-opacity:1.0; 
stroke:#FFFFFF; stroke-width:0; stroke-opacity:1; 
stroke-linecap:round; stroke-linejoin:round;">
<circle cx="40900" cy="36900" r="68.8976" /> 
</g>
<g style="fill:#FFFFFF; fill-opacity:1.0; 
stroke:#FFFFFF; stroke-width:39.3701; stroke-opacity:1; 
stroke-linecap:round; stroke-linejoin:round;">
</g>
<g style="fill:#FFFFFF; fill-opacity:1.0; 
stroke:#FFFFFF; stroke-width:0; stroke-opacity:1; 
stroke-linecap:round; stroke-linejoin:round;">
<circle cx="41900" cy="36900" r="68.8976" /> 
</g>
<g style="fill:#FFFFFF; fill-opacity:1.0; 
stroke:#FFFFFF; stroke-width:39.3701; stroke-opacity:1; 
stroke-linecap:round; stroke-linejoin:round;">
</g>
<g style="fill:#FFFFFF; fill-opacity:1.0; 
stroke:#FFFFFF; stroke-width:0; stroke-opacity:1; 
stroke-linecap:round; stroke-linejoin:round;">
<circle cx="40900" cy="29700" r="68.8976" /> 
</g>
<g style="fill:#FFFFFF; fill-opacity:1.0; 
stroke:#FFFFFF; stroke-width:39.3701; stroke-opacity:1; 
stroke-linecap:round; stroke-linejoin:round;">
</g>
<g style="fill:#FFFFFF; fill-opacity:1.0; 
stroke:#FFFFFF; stroke-width:0; stroke-opacity:1; 
stroke-linecap:round; stroke-linejoin:round;">
<circle cx="41900" cy="29700" r="68.8976" /> 
</g>
<g style="fill:#FFFFFF; fill-opacity:1.0; 
stroke:#FFFFFF; stroke-width:39.3701; stroke-opacity:1; 
stroke-linecap:round; stroke-linejoin:round;">
</g>
<g style="fill:#FFFFFF; fill-opacity:1.0; 
stroke:#FFFFFF; stroke-width:0; stroke-opacity:1; 
stroke-linecap:round; stroke-linejoin:round;">
<circle cx="33430" cy="31800" r="68.8976" /> 
</g>
<g style="fill:#FFFFFF; fill-opacity:1.0; 
stroke:#FFFFFF; stroke-width:39.3701; stroke-opacity:1; 
stroke-linecap:round; stroke-linejoin:round;">
</g>
<g style="fill:#FFFFFF; fill-opacity:1.0; 
stroke:#FFFFFF; stroke-width:0; stroke-opacity:1; 
stroke-linecap:round; stroke-linejoin:round;">
<circle cx="31300" cy="31800" r="68.8976" /> 
</g>
<g style="fill:#FFFFFF; fill-opacity:1.0; 
stroke:#FFFFFF; stroke-width:39.3701; stroke-opacity:1; 
stroke-linecap:round; stroke-linejoin:round;">
</g>
<g style="fill:#FFFFFF; fill-opacity:1.0; 
stroke:#FFFFFF; stroke-width:0; stroke-opacity:1; 
stroke-linecap:round; stroke-linejoin:round;">
<circle cx="30430" cy="34800" r="68.8976" /> 
</g>
<g style="fill:#FFFFFF; fill-opacity:1.0; 
stroke:#FFFFFF; stroke-width:39.3701; stroke-opacity:1; 
stroke-linecap:round; stroke-linejoin:round;">
</g>
<g style="fill:#FFFFFF; fill-opacity:1.0; 
stroke:#FFFFFF; stroke-width:0; stroke-opacity:1; 
stroke-linecap:round; stroke-linejoin:round;">
<circle cx="28300" cy="34800" r="68.8976" /> 
</g>
<g style="fill:#FFFFFF; fill-opacity:1.0; 
stroke:#FFFFFF; stroke-width:39.3701; stroke-opacity:1; 
stroke-linecap:round; stroke-linejoin:round;">
</g>
<g style="fill:#FFFFFF; fill-opacity:1.0; 
stroke:#FFFFFF; stroke-width:0; stroke-opacity:1; 
stroke-linecap:round; stroke-linejoin:round;">
<circle cx="30430" cy="32800" r="68.8976" /> 
</g>
<g style="fill:#FFFFFF; fill-opacity:1.0; 
stroke:#FFFFFF; stroke-width:39.3701; stroke-opacity:1; 
stroke-linecap:round; stroke-linejoin:round;">
</g>
<g style="fill:#FFFFFF; fill-opacity:1.0; 
stroke:#FFFFFF; stroke-width:0; stroke-opacity:1; 
stroke-linecap:round; stroke-linejoin:round;">
<circle cx="28300" cy="32800" r="68.8976" /> 
</g>
<g style="fill:#FFFFFF; fill-opacity:1.0; 
stroke:#FFFFFF; stroke-width:39.3701; stroke-opacity:1; 
stroke-linecap:round; stroke-linejoin:round;">
</g>
<g style="fill:#000000; fill-opacity:1.0; 
stroke:#000000; stroke-width:39.3701; stroke-opacity:1; 
stroke-linecap:round; stroke-linejoin:round;">
</g> 
</svg>
